PathFileType	4	(X/Y/Z)	OpenSim_Sub07_CSStiffKnee_Magnet.trc
DataRate	CameraRate	NumFrames	NumMarkers	Units	OrigDataRate	OrigDataStartFrame	OrigNumFrames
100	100	16	8	m	100	2526	6734
Frame#	Time	torso_imu_offset_imu	pelvis_imu_offset_imu	tibia_r_imu_offset_imu	femur_r_imu_offset_imu	tibia_l_imu_offset_imu	femur_l_imu_offset_imu	toes_r_imu_offset_imu	toes_l_imu_offset_imu
				X1	Y1	Z1	X2	Y2	Z2	X3	Y3	Z3	X4	Y4	Z4	X5	Y5	Z5	X6	Y6	Z6	X7	Y7	Z7	X8		Y8	Z8	

2526	25.25000000	0.92659715	0.22738366	0.04035172	-0.69618109	0.18659082	-0.63789634	-0.07352409	-0.81589499	0.17853366	-0.84978780	-0.12696279	-0.16262339	-0.64352760	0.50207898	0.19450546	-0.59794162	-0.12793476	0.31036061	-0.76165402	-0.39773847	0.26954198	-0.75457629	-0.21190461	-0.37425932
2527	25.26000000	0.92746721	0.23258453	0.03362665	-0.69465369	0.19184696	-0.64882227	-0.08991767	-0.81396275	0.17395977	-0.85419501	-0.11010714	-0.16099909	-0.64284586	0.50380611	0.20201362	-0.59240164	-0.12025445	0.30892611	-0.76299618	-0.40071912	0.23961348	-0.76151940	-0.21544770	-0.37268188
2528	25.27000000	0.92932425	0.22794432	0.03881559	-0.69743726	0.19179863	-0.64595397	-0.10881906	-0.81420885	0.17144969	-0.85409144	-0.10343306	-0.15082368	-0.64242943	0.50988657	0.20100043	-0.59320043	-0.11344997	0.31733508	-0.77207130	-0.40009291	0.21399735	-0.76033308	-0.21850983	-0.36819579
2529	25.28000000	0.92907621	0.23501793	0.03751951	-0.69329672	0.19742608	-0.64614023	-0.12838929	-0.81015192	0.16402975	-0.85974875	-0.09252991	-0.15472061	-0.64212983	0.51188806	0.20433792	-0.59003374	-0.11111450	0.32151949	-0.77751852	-0.40332120	0.18528674	-0.76562905	-0.21524962	-0.36872098
2530	25.29000000	0.92807255	0.23149322	0.03830799	-0.69388732	0.19905365	-0.65017269	-0.15340590	-0.80595698	0.15883126	-0.85618313	-0.08852076	-0.15198703	-0.63226342	0.51720141	0.20364502	-0.58582936	-0.10680016	0.32211921	-0.78412030	-0.40046997	0.15667098	-0.77305682	-0.21450765	-0.35751098
2531	25.30000000	0.92352285	0.22754689	0.04158437	-0.69424859	0.19870040	-0.64959869	-0.17958989	-0.80336865	0.15201309	-0.86060364	-0.07901347	-0.14501745	-0.62363191	0.52421143	0.20065316	-0.58499804	-0.10451111	0.32226129	-0.78928404	-0.40233661	0.11833888	-0.77030736	-0.21679065	-0.35166425
2532	25.31000000	0.92355062	0.23310735	0.04556780	-0.69255123	0.20550726	-0.65525529	-0.20344406	-0.79420689	0.15695443	-0.86514735	-0.07278165	-0.14752189	-0.62109986	0.52953572	0.20491372	-0.58357896	-0.09982083	0.31930268	-0.79073803	-0.40026097	0.07699280	-0.77170503	-0.21537708	-0.34634355
2533	25.32000000	0.92746069	0.23174984	0.04684406	-0.68652969	0.20964742	-0.65725362	-0.23154634	-0.78812734	0.14827376	-0.86034462	-0.06596958	-0.13907357	-0.62253022	0.53147927	0.20773136	-0.57681741	-0.09617371	0.32457044	-0.79349356	-0.39132127	0.03726497	-0.77509283	-0.21553246	-0.34402640
2534	25.33000000	0.92618779	0.22767708	0.04668837	-0.68583883	0.21268897	-0.65033881	-0.26235314	-0.77727279	0.15014270	-0.86556897	-0.05584442	-0.13566837	-0.61422291	0.53307345	0.21043308	-0.57364969	-0.09324954	0.32558699	-0.79343675	-0.39291617	-0.00550938	-0.76937529	-0.21802410	-0.34885312
2535	25.34000000	0.92512690	0.23227063	0.04762809	-0.68547153	0.21264460	-0.65527221	-0.29232667	-0.77225049	0.15703411	-0.86759881	-0.05334077	-0.12414339	-0.61170375	0.53817287	0.20806817	-0.57058262	-0.08920071	0.33129348	-0.78980424	-0.39036132	-0.04766535	-0.77152840	-0.21796943	-0.33123761
2536	25.35000000	0.92753702	0.23043423	0.04869812	-0.68226010	0.21585490	-0.65633275	-0.32191020	-0.75776650	0.16163587	-0.86864348	-0.04484143	-0.12409651	-0.61074586	0.54772532	0.21131248	-0.56335083	-0.08727457	0.33895858	-0.78175473	-0.38040728	-0.08961924	-0.76954618	-0.21920578	-0.33251613
2537	25.36000000	0.92592413	0.23064196	0.05148856	-0.67901554	0.21531206	-0.65923733	-0.35368304	-0.73991285	0.17253413	-0.87206637	-0.04261594	-0.12112772	-0.61103516	0.54878281	0.20980969	-0.56311325	-0.08509688	0.33784172	-0.76748398	-0.37062999	-0.13233525	-0.77350612	-0.21561164	-0.33007949
2538	25.37000000	0.92624165	0.23334396	0.05780811	-0.67919050	0.21379686	-0.65810142	-0.38173738	-0.71408237	0.17879146	-0.87573480	-0.04292521	-0.11180996	-0.60245006	0.55602422	0.20596271	-0.56714835	-0.08305137	0.34497242	-0.75924550	-0.36056253	-0.16663706	-0.77615842	-0.22056876	-0.32387991
2539	25.38000000	0.92730284	0.23182479	0.05602955	-0.67518962	0.21879964	-0.66294592	-0.42263383	-0.69135187	0.19085595	-0.86597229	-0.03859118	-0.11870219	-0.60369048	0.56532498	0.21206168	-0.55919757	-0.08058306	0.34554281	-0.74052438	-0.34572486	-0.20480882	-0.77291696	-0.21623654	-0.32318308
2540	25.39000000	0.92359255	0.23337242	0.06157489	-0.67025480	0.21725401	-0.66587057	-0.45678042	-0.67764513	0.18830086	-0.86762114	-0.03471906	-0.11588798	-0.59398213	0.56594149	0.21020665	-0.55721502	-0.07853945	0.34103696	-0.72618317	-0.33347880	-0.23157705	-0.76799478	-0.21519153	-0.32200408
2541	25.40000000	0.92952595	0.23113865	0.06012071	-0.67037390	0.21822574	-0.66834868	-0.48701738	-0.65330922	0.17797267	-0.86811079	-0.03584314	-0.11562244	-0.59127522	0.57054966	0.20764298	-0.55596839	-0.07585509	0.34172204	-0.71043177	-0.32041114	-0.25601497	-0.76992654	-0.21313417	-0.31685382
